<svg xmlns="http://www.w3.org/2000/svg" xmlns:xlink="http://www.w3.org/1999/xlink" width="300" zoomAndPan="magnify" viewBox="0 0 224.87999 82.499998" height="110" preserveAspectRatio="xMidYMid meet" version="1.0"><defs><g/><clipPath id="eed00e96e9"><path d="M 100 2.414062 L 126.734375 2.414062 L 126.734375 29.25 L 100 29.25 Z M 100 2.414062 " clip-rule="nonzero"/></clipPath><clipPath id="1f09984699"><path d="M 99.152344 1.792969 L 125.988281 1.792969 L 125.988281 28.628906 L 99.152344 28.628906 Z M 99.152344 1.792969 " clip-rule="nonzero"/></clipPath></defs><g clip-path="url(#eed00e96e9)"><path fill="#5b584f" d="M 106.265625 2.609375 C 102.847656 2.609375 100.074219 5.378906 100.074219 8.792969 C 100.074219 12.207031 102.847656 14.976562 106.265625 14.976562 C 109.683594 14.976562 112.453125 12.207031 112.453125 8.792969 C 112.453125 5.378906 109.683594 2.609375 106.265625 2.609375 Z M 106.265625 11.441406 C 104.800781 11.441406 103.613281 10.257812 103.613281 8.792969 C 103.613281 7.328125 104.800781 6.144531 106.265625 6.144531 C 107.730469 6.144531 108.917969 7.328125 108.917969 8.792969 C 108.917969 10.257812 107.730469 11.441406 106.265625 11.441406 Z M 120.414062 16.742188 C 116.996094 16.742188 114.222656 19.503906 114.222656 22.914062 C 114.222656 26.320312 116.996094 29.082031 120.414062 29.082031 C 123.832031 29.082031 126.601562 26.320312 126.601562 22.914062 C 126.601562 19.503906 123.832031 16.742188 120.414062 16.742188 Z M 120.414062 25.554688 C 118.949219 25.554688 117.761719 24.371094 117.761719 22.914062 C 117.761719 21.453125 118.949219 20.269531 120.414062 20.269531 C 121.878906 20.269531 123.066406 21.453125 123.066406 22.914062 C 123.066406 24.371094 121.878906 25.554688 120.414062 25.554688 Z M 120.414062 25.554688 " fill-opacity="1" fill-rule="evenodd"/><path fill="#5b584f" d="M 126.097656 12.066406 L 122.816406 8.789062 L 126.097656 5.511719 C 126.761719 4.851562 126.761719 3.777344 126.097656 3.113281 C 125.433594 2.449219 124.359375 2.449219 123.695312 3.113281 L 120.414062 6.390625 L 117.109375 3.085938 C 116.445312 2.421875 115.367188 2.421875 114.699219 3.085938 C 114.035156 3.75 114.035156 4.828125 114.699219 5.492188 L 118.007812 8.792969 L 114.726562 12.074219 C 114.0625 12.734375 114.0625 13.808594 114.726562 14.472656 C 115.390625 15.136719 116.464844 15.136719 117.128906 14.472656 L 120.410156 11.195312 L 123.691406 14.472656 C 124.355469 15.136719 125.433594 15.136719 126.097656 14.472656 C 126.761719 13.808594 126.761719 12.730469 126.097656 12.066406 Z M 108.667969 22.910156 L 111.949219 19.636719 C 112.613281 18.976562 112.613281 17.90625 111.949219 17.246094 C 111.289062 16.582031 110.210938 16.582031 109.550781 17.246094 L 106.265625 20.515625 L 102.988281 17.246094 C 102.320312 16.582031 101.246094 16.582031 100.578125 17.246094 C 99.914062 17.90625 99.914062 18.980469 100.578125 19.644531 L 103.859375 22.914062 L 100.578125 26.183594 C 99.917969 26.847656 99.917969 27.917969 100.578125 28.578125 C 101.242188 29.238281 102.316406 29.238281 102.980469 28.578125 L 106.261719 25.308594 L 109.570312 28.605469 C 110.234375 29.269531 111.3125 29.269531 111.976562 28.605469 C 112.640625 27.941406 112.640625 26.867188 111.976562 26.207031 Z M 108.667969 22.910156 " fill-opacity="1" fill-rule="evenodd"/></g><g clip-path="url(#1f09984699)"><path fill="#f7e282" d="M 105.519531 1.988281 C 102.101562 1.988281 99.328125 4.757812 99.328125 8.171875 C 99.328125 11.585938 102.101562 14.355469 105.519531 14.355469 C 108.9375 14.355469 111.710938 11.585938 111.710938 8.171875 C 111.710938 4.757812 108.9375 1.988281 105.519531 1.988281 Z M 105.519531 10.824219 C 104.054688 10.824219 102.867188 9.636719 102.867188 8.171875 C 102.867188 6.707031 104.054688 5.523438 105.519531 5.523438 C 106.984375 5.523438 108.171875 6.710938 108.171875 8.171875 C 108.171875 9.636719 106.984375 10.824219 105.519531 10.824219 Z M 119.667969 16.121094 C 116.25 16.121094 113.476562 18.882812 113.476562 22.292969 C 113.476562 25.699219 116.25 28.460938 119.667969 28.460938 C 123.085938 28.460938 125.855469 25.699219 125.855469 22.292969 C 125.855469 18.882812 123.085938 16.121094 119.667969 16.121094 Z M 119.667969 24.9375 C 118.203125 24.9375 117.015625 23.753906 117.015625 22.292969 C 117.015625 20.832031 118.203125 19.648438 119.667969 19.648438 C 121.132812 19.648438 122.320312 20.832031 122.320312 22.292969 C 122.320312 23.753906 121.132812 24.9375 119.667969 24.9375 Z M 119.667969 24.9375 " fill-opacity="1" fill-rule="evenodd"/><path fill="#f79e6b" d="M 125.351562 11.445312 L 122.070312 8.167969 L 125.351562 4.890625 C 126.015625 4.230469 126.015625 3.15625 125.351562 2.492188 C 124.6875 1.832031 123.613281 1.832031 122.949219 2.492188 L 119.671875 5.769531 L 116.363281 2.464844 C 115.699219 1.800781 114.621094 1.800781 113.957031 2.464844 C 113.292969 3.128906 113.292969 4.207031 113.957031 4.871094 L 117.261719 8.175781 L 113.980469 11.453125 C 113.316406 12.113281 113.316406 13.191406 113.980469 13.851562 C 114.644531 14.515625 115.71875 14.515625 116.382812 13.851562 L 119.664062 10.574219 L 122.945312 13.851562 C 123.609375 14.515625 124.6875 14.515625 125.351562 13.851562 C 126.015625 13.1875 126.015625 12.109375 125.351562 11.445312 Z M 107.921875 22.289062 L 111.207031 19.019531 C 111.867188 18.359375 111.867188 17.285156 111.207031 16.625 C 110.542969 15.964844 109.46875 15.964844 108.804688 16.625 L 105.523438 19.894531 L 102.242188 16.625 C 101.578125 15.960938 100.5 15.960938 99.835938 16.625 C 99.167969 17.289062 99.167969 18.363281 99.835938 19.023438 L 103.113281 22.292969 L 99.835938 25.5625 C 99.171875 26.226562 99.171875 27.296875 99.835938 27.957031 C 100.496094 28.621094 101.574219 28.621094 102.234375 27.957031 L 105.515625 24.6875 L 108.824219 27.984375 C 109.488281 28.648438 110.566406 28.648438 111.230469 27.984375 C 111.894531 27.324219 111.894531 26.25 111.230469 25.585938 Z M 107.921875 22.289062 " fill-opacity="1" fill-rule="evenodd"/></g><g fill="#5b584f" fill-opacity="1"><g transform="translate(4.192091, 70.029951)"><g><path d="M 22.703125 -31.570312 L 1.632812 -30.015625 C 0.21875 -29.910156 -0.882812 -28.667969 -0.777344 -27.21875 L -0.402344 -22.128906 C -0.296875 -20.714844 0.980469 -19.617188 2.394531 -19.71875 L 7.519531 -20.097656 C 7.671875 -20.109375 7.792969 -19.96875 7.800781 -19.855469 L 9.03125 -3.207031 C 9.132812 -1.796875 10.375 -0.691406 11.859375 -0.800781 L 16.914062 -1.175781 C 18.328125 -1.277344 19.429688 -2.554688 19.324219 -3.96875 L 18.09375 -20.617188 C 18.085938 -20.730469 18.222656 -20.890625 18.375 -20.898438 L 23.464844 -21.277344 C 24.878906 -21.378906 25.976562 -22.65625 25.875 -24.070312 L 25.5 -29.160156 C 25.390625 -30.609375 24.117188 -31.675781 22.703125 -31.570312 Z M 22.703125 -31.570312 "/></g></g></g><g fill="#5b584f" fill-opacity="1"><g transform="translate(32.918999, 67.908618)"><g><path d="M 3.867188 -0.25 L 8.476562 -0.589844 C 10.035156 -0.703125 11.058594 -2.050781 10.953125 -3.460938 L 9.152344 -27.878906 C 9.035156 -29.441406 7.839844 -30.472656 6.277344 -30.355469 L 1.667969 -30.015625 C 0.21875 -29.910156 -0.886719 -28.707031 -0.773438 -27.144531 L 1.03125 -2.730469 C 1.136719 -1.316406 2.417969 -0.140625 3.867188 -0.25 Z M 3.867188 -0.25 "/></g></g></g><g fill="#5b584f" fill-opacity="1"><g transform="translate(45.294239, 66.994771)"><g><path d="M 14.886719 -12.945312 C 14.554688 -12.921875 14.3125 -12.640625 14.335938 -12.304688 C 14.429688 -11.042969 13.359375 -9.84375 12.058594 -9.746094 C 10.683594 -9.644531 9.523438 -10.679688 9.429688 -11.945312 L 8.886719 -19.300781 C 8.757812 -21.085938 10.546875 -22.636719 12.640625 -21.632812 C 13.222656 -21.339844 13.726562 -20.554688 13.777344 -19.886719 L 13.789062 -19.703125 C 13.8125 -19.40625 14.09375 -19.125 14.429688 -19.152344 L 22.902344 -19.777344 C 23.164062 -19.796875 23.402344 -20.074219 23.382812 -20.371094 L 23.332031 -21.042969 C 22.882812 -27.136719 16.683594 -31.613281 10.480469 -31.152344 C 4.382812 -30.703125 -1.238281 -25.355469 -0.785156 -19.261719 L -0.167969 -10.863281 C 0.300781 -4.542969 6.648438 -0.0429688 12.742188 -0.492188 C 18.949219 -0.949219 24.417969 -6.324219 23.953125 -12.640625 L 23.917969 -13.089844 C 23.902344 -13.347656 23.621094 -13.589844 23.359375 -13.570312 Z M 14.886719 -12.945312 "/></g></g></g><g fill="#f7e282" fill-opacity="1"><g transform="translate(2.42824, 68.508688)"><g><path d="M 22.703125 -31.570312 L 1.632812 -30.015625 C 0.21875 -29.910156 -0.882812 -28.667969 -0.777344 -27.21875 L -0.402344 -22.128906 C -0.296875 -20.714844 0.980469 -19.617188 2.394531 -19.71875 L 7.519531 -20.097656 C 7.671875 -20.109375 7.792969 -19.96875 7.800781 -19.855469 L 9.03125 -3.207031 C 9.132812 -1.796875 10.375 -0.691406 11.859375 -0.800781 L 16.914062 -1.175781 C 18.328125 -1.277344 19.429688 -2.554688 19.324219 -3.96875 L 18.09375 -20.617188 C 18.085938 -20.730469 18.222656 -20.890625 18.375 -20.898438 L 23.464844 -21.277344 C 24.878906 -21.378906 25.976562 -22.65625 25.875 -24.070312 L 25.5 -29.160156 C 25.390625 -30.609375 24.117188 -31.675781 22.703125 -31.570312 Z M 22.703125 -31.570312 "/></g></g></g><g fill="#f7e282" fill-opacity="1"><g transform="translate(31.155148, 66.387355)"><g><path d="M 3.867188 -0.25 L 8.476562 -0.589844 C 10.035156 -0.703125 11.058594 -2.050781 10.953125 -3.460938 L 9.152344 -27.878906 C 9.035156 -29.441406 7.839844 -30.472656 6.277344 -30.355469 L 1.667969 -30.015625 C 0.21875 -29.910156 -0.886719 -28.707031 -0.773438 -27.144531 L 1.03125 -2.730469 C 1.136719 -1.316406 2.417969 -0.140625 3.867188 -0.25 Z M 3.867188 -0.25 "/></g></g></g><g fill="#f7e282" fill-opacity="1"><g transform="translate(43.530388, 65.473507)"><g><path d="M 14.886719 -12.945312 C 14.554688 -12.921875 14.3125 -12.640625 14.335938 -12.304688 C 14.429688 -11.042969 13.359375 -9.84375 12.058594 -9.746094 C 10.683594 -9.644531 9.523438 -10.679688 9.429688 -11.945312 L 8.886719 -19.300781 C 8.757812 -21.085938 10.546875 -22.636719 12.640625 -21.632812 C 13.222656 -21.339844 13.726562 -20.554688 13.777344 -19.886719 L 13.789062 -19.703125 C 13.8125 -19.40625 14.09375 -19.125 14.429688 -19.152344 L 22.902344 -19.777344 C 23.164062 -19.796875 23.402344 -20.074219 23.382812 -20.371094 L 23.332031 -21.042969 C 22.882812 -27.136719 16.683594 -31.613281 10.480469 -31.152344 C 4.382812 -30.703125 -1.238281 -25.355469 -0.785156 -19.261719 L -0.167969 -10.863281 C 0.300781 -4.542969 6.648438 -0.0429688 12.742188 -0.492188 C 18.949219 -0.949219 24.417969 -6.324219 23.953125 -12.640625 L 23.917969 -13.089844 C 23.902344 -13.347656 23.621094 -13.589844 23.359375 -13.570312 Z M 14.886719 -12.945312 "/></g></g></g><g fill="#5b584f" fill-opacity="1"><g transform="translate(68.533094, 74.378361)"><g><path d="M 26.972656 -28.007812 L 5.894531 -29.472656 C 4.484375 -29.574219 3.214844 -28.503906 3.113281 -27.054688 L 2.757812 -21.960938 C 2.660156 -20.546875 3.765625 -19.273438 5.179688 -19.175781 L 10.308594 -18.820312 C 10.460938 -18.808594 10.558594 -18.652344 10.550781 -18.542969 L 9.394531 -1.886719 C 9.296875 -0.472656 10.367188 0.796875 11.855469 0.898438 L 16.910156 1.25 C 18.324219 1.347656 19.59375 0.242188 19.691406 -1.171875 L 20.851562 -17.828125 C 20.859375 -17.9375 21.015625 -18.078125 21.164062 -18.066406 L 26.257812 -17.710938 C 27.671875 -17.613281 28.945312 -18.722656 29.042969 -20.132812 L 29.394531 -25.226562 C 29.496094 -26.675781 28.386719 -27.910156 26.972656 -28.007812 Z M 26.972656 -28.007812 "/></g></g></g><g fill="#5b584f" fill-opacity="1"><g transform="translate(97.268922, 76.375262)"><g><path d="M 28.582031 -1.152344 L 23.933594 -25.644531 C 23.851562 -26.097656 23.789062 -26.773438 23.308594 -27.40625 C 22.789062 -28 22.09375 -28.199219 21.574219 -28.234375 L 11.832031 -28.914062 C 11.277344 -28.953125 10.742188 -28.800781 10.351562 -28.53125 C 9.960938 -28.296875 9.519531 -27.878906 9.324219 -27.21875 L 0.925781 -3.109375 C 0.546875 -1.941406 1.015625 -0.640625 2.097656 -0.078125 C 2.382812 0.0898438 2.679688 0.148438 3.050781 0.175781 L 8.105469 0.527344 C 9.480469 0.621094 10.097656 -0.195312 10.753906 -1.570312 L 12.035156 -4.394531 L 17.722656 -4 L 18.636719 -1.019531 C 19.097656 0.429688 19.589844 1.363281 20.96875 1.457031 L 26.023438 1.808594 C 26.433594 1.835938 26.847656 1.753906 27.160156 1.589844 C 28.199219 1.136719 28.765625 -0.0195312 28.582031 -1.152344 Z M 17.242188 -12.660156 L 13.785156 -12.902344 C 13.414062 -12.925781 13.136719 -13.28125 13.351562 -13.640625 L 14.492188 -16.101562 L 15.371094 -17.984375 C 15.550781 -18.457031 16.222656 -18.410156 16.335938 -17.914062 L 16.984375 -15.929688 L 17.773438 -13.332031 C 17.859375 -12.953125 17.574219 -12.636719 17.242188 -12.660156 Z M 17.242188 -12.660156 "/></g></g></g><g fill="#5b584f" fill-opacity="1"><g transform="translate(126.339317, 78.395412)"><g><path d="M 16.582031 -10.6875 C 16.246094 -10.710938 15.96875 -10.46875 15.945312 -10.136719 C 15.859375 -8.871094 14.628906 -7.835938 13.328125 -7.925781 C 11.949219 -8.023438 10.949219 -9.214844 11.039062 -10.476562 L 11.550781 -17.835938 C 11.671875 -19.621094 13.667969 -20.902344 15.59375 -19.609375 C 16.128906 -19.238281 16.519531 -18.390625 16.472656 -17.71875 L 16.460938 -17.535156 C 16.4375 -17.238281 16.679688 -16.921875 17.011719 -16.898438 L 25.488281 -16.308594 C 25.75 -16.289062 26.027344 -16.53125 26.046875 -16.832031 L 26.09375 -17.5 C 26.519531 -23.597656 21.023438 -28.910156 14.8125 -29.339844 C 8.71875 -29.765625 2.390625 -25.273438 1.96875 -19.175781 L 1.382812 -10.773438 C 0.945312 -4.453125 6.585938 0.90625 12.683594 1.328125 C 18.890625 1.761719 25.070312 -2.777344 25.511719 -9.097656 L 25.542969 -9.542969 C 25.558594 -9.804688 25.316406 -10.082031 25.058594 -10.101562 Z M 16.582031 -10.6875 "/></g></g></g><g fill="#f79e6b" fill-opacity="1"><g transform="translate(67.004208, 72.621113)"><g><path d="M 26.972656 -28.007812 L 5.894531 -29.472656 C 4.484375 -29.574219 3.214844 -28.503906 3.113281 -27.054688 L 2.757812 -21.960938 C 2.660156 -20.546875 3.765625 -19.273438 5.179688 -19.175781 L 10.308594 -18.820312 C 10.460938 -18.808594 10.558594 -18.652344 10.550781 -18.542969 L 9.394531 -1.886719 C 9.296875 -0.472656 10.367188 0.796875 11.855469 0.898438 L 16.910156 1.25 C 18.324219 1.347656 19.59375 0.242188 19.691406 -1.171875 L 20.851562 -17.828125 C 20.859375 -17.9375 21.015625 -18.078125 21.164062 -18.066406 L 26.257812 -17.710938 C 27.671875 -17.613281 28.945312 -18.722656 29.042969 -20.132812 L 29.394531 -25.226562 C 29.496094 -26.675781 28.386719 -27.910156 26.972656 -28.007812 Z M 26.972656 -28.007812 "/></g></g></g><g fill="#f79e6b" fill-opacity="1"><g transform="translate(95.740035, 74.618014)"><g><path d="M 28.582031 -1.152344 L 23.933594 -25.644531 C 23.851562 -26.097656 23.789062 -26.773438 23.308594 -27.40625 C 22.789062 -28 22.09375 -28.199219 21.574219 -28.234375 L 11.832031 -28.914062 C 11.277344 -28.953125 10.742188 -28.800781 10.351562 -28.53125 C 9.960938 -28.296875 9.519531 -27.878906 9.324219 -27.21875 L 0.925781 -3.109375 C 0.546875 -1.941406 1.015625 -0.640625 2.097656 -0.078125 C 2.382812 0.0898438 2.679688 0.148438 3.050781 0.175781 L 8.105469 0.527344 C 9.480469 0.621094 10.097656 -0.195312 10.753906 -1.570312 L 12.035156 -4.394531 L 17.722656 -4 L 18.636719 -1.019531 C 19.097656 0.429688 19.589844 1.363281 20.96875 1.457031 L 26.023438 1.808594 C 26.433594 1.835938 26.847656 1.753906 27.160156 1.589844 C 28.199219 1.136719 28.765625 -0.0195312 28.582031 -1.152344 Z M 17.242188 -12.660156 L 13.785156 -12.902344 C 13.414062 -12.925781 13.136719 -13.28125 13.351562 -13.640625 L 14.492188 -16.101562 L 15.371094 -17.984375 C 15.550781 -18.457031 16.222656 -18.410156 16.335938 -17.914062 L 16.984375 -15.929688 L 17.773438 -13.332031 C 17.859375 -12.953125 17.574219 -12.636719 17.242188 -12.660156 Z M 17.242188 -12.660156 "/></g></g></g><g fill="#f79e6b" fill-opacity="1"><g transform="translate(124.81043, 76.638164)"><g><path d="M 16.582031 -10.6875 C 16.246094 -10.710938 15.96875 -10.46875 15.945312 -10.136719 C 15.859375 -8.871094 14.628906 -7.835938 13.328125 -7.925781 C 11.949219 -8.023438 10.949219 -9.214844 11.039062 -10.476562 L 11.550781 -17.835938 C 11.671875 -19.621094 13.667969 -20.902344 15.59375 -19.609375 C 16.128906 -19.238281 16.519531 -18.390625 16.472656 -17.71875 L 16.460938 -17.535156 C 16.4375 -17.238281 16.679688 -16.921875 17.011719 -16.898438 L 25.488281 -16.308594 C 25.75 -16.289062 26.027344 -16.53125 26.046875 -16.832031 L 26.09375 -17.5 C 26.519531 -23.597656 21.023438 -28.910156 14.8125 -29.339844 C 8.71875 -29.765625 2.390625 -25.273438 1.96875 -19.175781 L 1.382812 -10.773438 C 0.945312 -4.453125 6.585938 0.90625 12.683594 1.328125 C 18.890625 1.761719 25.070312 -2.777344 25.511719 -9.097656 L 25.542969 -9.542969 C 25.558594 -9.804688 25.316406 -10.082031 25.058594 -10.101562 Z M 16.582031 -10.6875 "/></g></g></g><g fill="#5b584f" fill-opacity="1"><g transform="translate(148.012599, 70.031733)"><g><path d="M 22.757812 -31.53125 L 1.683594 -30.011719 C 0.269531 -29.910156 -0.835938 -28.671875 -0.730469 -27.222656 L -0.363281 -22.128906 C -0.261719 -20.71875 1.011719 -19.613281 2.425781 -19.714844 L 7.554688 -20.085938 C 7.703125 -20.097656 7.824219 -19.957031 7.835938 -19.84375 L 9.035156 -3.191406 C 9.136719 -1.78125 10.375 -0.675781 11.863281 -0.78125 L 16.917969 -1.144531 C 18.328125 -1.246094 19.433594 -2.523438 19.332031 -3.933594 L 18.128906 -20.585938 C 18.121094 -20.699219 18.257812 -20.859375 18.410156 -20.867188 L 23.5 -21.234375 C 24.914062 -21.339844 26.015625 -22.613281 25.914062 -24.027344 L 25.546875 -29.117188 C 25.441406 -30.566406 24.171875 -31.632812 22.757812 -31.53125 Z M 22.757812 -31.53125 "/></g></g></g><g fill="#5b584f" fill-opacity="1"><g transform="translate(176.743033, 67.958706)"><g><path d="M 10.570312 -31.101562 C 4.476562 -30.660156 -1.191406 -25.320312 -0.75 -19.1875 L -0.136719 -10.714844 C 0.320312 -4.355469 6.699219 0.152344 12.792969 -0.289062 C 19.039062 -0.738281 24.554688 -6.105469 24.097656 -12.460938 L 23.484375 -20.9375 C 23.042969 -27.070312 16.816406 -31.550781 10.570312 -31.101562 Z M 14.441406 -12.140625 C 14.535156 -10.875 13.460938 -9.675781 12.125 -9.582031 C 10.75 -9.480469 9.589844 -10.519531 9.5 -11.78125 L 8.960938 -19.214844 C 8.867188 -20.554688 9.863281 -21.746094 11.238281 -21.847656 C 12.578125 -21.941406 13.808594 -20.910156 13.90625 -19.574219 Z M 14.441406 -12.140625 "/></g></g></g><g fill="#5b584f" fill-opacity="1"><g transform="translate(202.239899, 66.118996)"><g><path d="M 10.03125 -22.507812 L 17.578125 -23.050781 C 18.65625 -23.128906 19.484375 -24.085938 19.410156 -25.125 L 19.109375 -29.289062 C 19.03125 -30.367188 18.078125 -31.15625 17 -31.078125 L 1.796875 -29.980469 C 0.273438 -29.871094 -0.832031 -28.597656 -0.769531 -27.742188 L 0.976562 -3.546875 C 1.136719 -1.351562 2.410156 -0.25 3.933594 -0.359375 L 19.136719 -1.457031 C 20.214844 -1.535156 21.042969 -2.453125 20.96875 -3.53125 L 20.667969 -7.691406 C 20.589844 -8.769531 19.628906 -9.636719 18.550781 -9.558594 L 11.007812 -9.015625 C 10.859375 -9.003906 10.738281 -9.105469 10.726562 -9.253906 L 10.554688 -11.632812 C 10.546875 -11.78125 10.648438 -11.902344 10.796875 -11.914062 L 16.261719 -12.308594 C 17.226562 -12.378906 17.988281 -13.214844 17.917969 -14.21875 L 17.625 -18.273438 C 17.554688 -19.238281 16.679688 -19.996094 15.710938 -19.925781 L 10.246094 -19.53125 C 10.097656 -19.523438 9.980469 -19.625 9.972656 -19.738281 L 9.792969 -22.191406 C 9.785156 -22.300781 9.882812 -22.496094 10.03125 -22.507812 Z M 10.03125 -22.507812 "/></g></g></g><g fill="#f7e282" fill-opacity="1"><g transform="translate(146.25131, 68.507507)"><g><path d="M 22.757812 -31.53125 L 1.683594 -30.011719 C 0.269531 -29.910156 -0.835938 -28.671875 -0.730469 -27.222656 L -0.363281 -22.128906 C -0.261719 -20.71875 1.011719 -19.613281 2.425781 -19.714844 L 7.554688 -20.085938 C 7.703125 -20.097656 7.824219 -19.957031 7.835938 -19.84375 L 9.035156 -3.191406 C 9.136719 -1.78125 10.375 -0.675781 11.863281 -0.78125 L 16.917969 -1.144531 C 18.328125 -1.246094 19.433594 -2.523438 19.332031 -3.933594 L 18.128906 -20.585938 C 18.121094 -20.699219 18.257812 -20.859375 18.410156 -20.867188 L 23.5 -21.234375 C 24.914062 -21.339844 26.015625 -22.613281 25.914062 -24.027344 L 25.546875 -29.117188 C 25.441406 -30.566406 24.171875 -31.632812 22.757812 -31.53125 Z M 22.757812 -31.53125 "/></g></g></g><g fill="#f7e282" fill-opacity="1"><g transform="translate(174.981745, 66.43448)"><g><path d="M 10.570312 -31.101562 C 4.476562 -30.660156 -1.191406 -25.320312 -0.75 -19.1875 L -0.136719 -10.714844 C 0.320312 -4.355469 6.699219 0.152344 12.792969 -0.289062 C 19.039062 -0.738281 24.554688 -6.105469 24.097656 -12.460938 L 23.484375 -20.9375 C 23.042969 -27.070312 16.816406 -31.550781 10.570312 -31.101562 Z M 14.441406 -12.140625 C 14.535156 -10.875 13.460938 -9.675781 12.125 -9.582031 C 10.75 -9.480469 9.589844 -10.519531 9.5 -11.78125 L 8.960938 -19.214844 C 8.867188 -20.554688 9.863281 -21.746094 11.238281 -21.847656 C 12.578125 -21.941406 13.808594 -20.910156 13.90625 -19.574219 Z M 14.441406 -12.140625 "/></g></g></g><g fill="#f7e282" fill-opacity="1"><g transform="translate(200.47861, 64.59477)"><g><path d="M 10.03125 -22.507812 L 17.578125 -23.050781 C 18.65625 -23.128906 19.484375 -24.085938 19.410156 -25.125 L 19.109375 -29.289062 C 19.03125 -30.367188 18.078125 -31.15625 17 -31.078125 L 1.796875 -29.980469 C 0.273438 -29.871094 -0.832031 -28.597656 -0.769531 -27.742188 L 0.976562 -3.546875 C 1.136719 -1.351562 2.410156 -0.25 3.933594 -0.359375 L 19.136719 -1.457031 C 20.214844 -1.535156 21.042969 -2.453125 20.96875 -3.53125 L 20.667969 -7.691406 C 20.589844 -8.769531 19.628906 -9.636719 18.550781 -9.558594 L 11.007812 -9.015625 C 10.859375 -9.003906 10.738281 -9.105469 10.726562 -9.253906 L 10.554688 -11.632812 C 10.546875 -11.78125 10.648438 -11.902344 10.796875 -11.914062 L 16.261719 -12.308594 C 17.226562 -12.378906 17.988281 -13.214844 17.917969 -14.21875 L 17.625 -18.273438 C 17.554688 -19.238281 16.679688 -19.996094 15.710938 -19.925781 L 10.246094 -19.53125 C 10.097656 -19.523438 9.980469 -19.625 9.972656 -19.738281 L 9.792969 -22.191406 C 9.785156 -22.300781 9.882812 -22.496094 10.03125 -22.507812 Z M 10.03125 -22.507812 "/></g></g></g></svg>